<svg xmlns="http://www.w3.org/2000/svg" viewBox="0 0 936 682" width="936" height="682">
  <defs>
    <linearGradient id="bgCuda" x1="0%" y1="0%" x2="100%" y2="100%">
      <stop offset="0%" style="stop-color:#050a10"/>
      <stop offset="100%" style="stop-color:#0a1628"/>
    </linearGradient>
    <linearGradient id="coreActive" x1="0%" y1="0%" x2="100%" y2="100%">
      <stop offset="0%" style="stop-color:#76c442"/>
      <stop offset="100%" style="stop-color:#4a9e1f"/>
    </linearGradient>
    <linearGradient id="coreMid" x1="0%" y1="0%" x2="100%" y2="100%">
      <stop offset="0%" style="stop-color:#2ea8e0"/>
      <stop offset="100%" style="stop-color:#1a7ab0"/>
    </linearGradient>
    <linearGradient id="coreIdle" x1="0%" y1="0%" x2="100%" y2="100%">
      <stop offset="0%" style="stop-color:#1e3a5f"/>
      <stop offset="100%" style="stop-color:#0f2240"/>
    </linearGradient>
    <linearGradient id="barGpu" x1="0%" y1="0%" x2="100%" y2="0%">
      <stop offset="0%" style="stop-color:#76c442"/>
      <stop offset="100%" style="stop-color:#4a9e1f"/>
    </linearGradient>
    <linearGradient id="barCublas" x1="0%" y1="0%" x2="100%" y2="0%">
      <stop offset="0%" style="stop-color:#2ea8e0"/>
      <stop offset="100%" style="stop-color:#1a7ab0"/>
    </linearGradient>
    <filter id="glowCuda">
      <feGaussianBlur stdDeviation="2" result="blur"/>
      <feMerge><feMergeNode in="blur"/><feMergeNode in="SourceGraphic"/></feMerge>
    </filter>
  </defs>

  <rect width="936" height="682" fill="url(#bgCuda)"/>

  <!-- Subtle scan lines -->
  <g opacity="0.04">
    <pattern id="lines" x="0" y="0" width="1" height="4" patternUnits="userSpaceOnUse">
      <rect width="936" height="1" fill="#76c442"/>
    </pattern>
    <rect width="936" height="682" fill="url(#lines)"/>
  </g>

  <!-- GPU chip outline -->
  <rect x="80" y="100" width="430" height="380" rx="16" fill="#050e1a" stroke="#1e3a5f" stroke-width="2"/>
  <rect x="96" y="116" width="398" height="348" rx="10" fill="#060f1c" stroke="#0f2a45" stroke-width="1"/>
  <text x="295" y="148" text-anchor="middle" font-family="monospace" font-size="13" fill="#2ea8e0" letter-spacing="2" font-weight="bold">NVIDIA T4  ·  2560 CUDA cores</text>

  <!-- Grid of CUDA cores (8x10) -->
  <g transform="translate(106, 160)">
    <!-- Row 0 -->
    <rect x="0"   y="0"  width="30" height="22" rx="3" fill="url(#coreActive)" filter="url(#glowCuda)"/>
    <rect x="36"  y="0"  width="30" height="22" rx="3" fill="url(#coreActive)" filter="url(#glowCuda)"/>
    <rect x="72"  y="0"  width="30" height="22" rx="3" fill="url(#coreActive)" filter="url(#glowCuda)"/>
    <rect x="108" y="0"  width="30" height="22" rx="3" fill="url(#coreActive)" filter="url(#glowCuda)"/>
    <rect x="144" y="0"  width="30" height="22" rx="3" fill="url(#coreMid)"    filter="url(#glowCuda)"/>
    <rect x="180" y="0"  width="30" height="22" rx="3" fill="url(#coreMid)"    filter="url(#glowCuda)"/>
    <rect x="216" y="0"  width="30" height="22" rx="3" fill="url(#coreActive)" filter="url(#glowCuda)"/>
    <rect x="252" y="0"  width="30" height="22" rx="3" fill="url(#coreActive)" filter="url(#glowCuda)"/>
    <rect x="288" y="0"  width="30" height="22" rx="3" fill="url(#coreMid)"    filter="url(#glowCuda)"/>
    <rect x="324" y="0"  width="30" height="22" rx="3" fill="url(#coreActive)" filter="url(#glowCuda)"/>
    <!-- Row 1 -->
    <rect x="0"   y="28" width="30" height="22" rx="3" fill="url(#coreMid)"    filter="url(#glowCuda)"/>
    <rect x="36"  y="28" width="30" height="22" rx="3" fill="url(#coreActive)" filter="url(#glowCuda)"/>
    <rect x="72"  y="28" width="30" height="22" rx="3" fill="url(#coreIdle)"/>
    <rect x="108" y="28" width="30" height="22" rx="3" fill="url(#coreActive)" filter="url(#glowCuda)"/>
    <rect x="144" y="28" width="30" height="22" rx="3" fill="url(#coreActive)" filter="url(#glowCuda)"/>
    <rect x="180" y="28" width="30" height="22" rx="3" fill="url(#coreIdle)"/>
    <rect x="216" y="28" width="30" height="22" rx="3" fill="url(#coreMid)"    filter="url(#glowCuda)"/>
    <rect x="252" y="28" width="30" height="22" rx="3" fill="url(#coreActive)" filter="url(#glowCuda)"/>
    <rect x="288" y="28" width="30" height="22" rx="3" fill="url(#coreActive)" filter="url(#glowCuda)"/>
    <rect x="324" y="28" width="30" height="22" rx="3" fill="url(#coreIdle)"/>
    <!-- Row 2 -->
    <rect x="0"   y="56" width="30" height="22" rx="3" fill="url(#coreActive)" filter="url(#glowCuda)"/>
    <rect x="36"  y="56" width="30" height="22" rx="3" fill="url(#coreIdle)"/>
    <rect x="72"  y="56" width="30" height="22" rx="3" fill="url(#coreActive)" filter="url(#glowCuda)"/>
    <rect x="108" y="56" width="30" height="22" rx="3" fill="url(#coreMid)"    filter="url(#glowCuda)"/>
    <rect x="144" y="56" width="30" height="22" rx="3" fill="url(#coreIdle)"/>
    <rect x="180" y="56" width="30" height="22" rx="3" fill="url(#coreActive)" filter="url(#glowCuda)"/>
    <rect x="216" y="56" width="30" height="22" rx="3" fill="url(#coreActive)" filter="url(#glowCuda)"/>
    <rect x="252" y="56" width="30" height="22" rx="3" fill="url(#coreMid)"    filter="url(#glowCuda)"/>
    <rect x="288" y="56" width="30" height="22" rx="3" fill="url(#coreIdle)"/>
    <rect x="324" y="56" width="30" height="22" rx="3" fill="url(#coreActive)" filter="url(#glowCuda)"/>
    <!-- Row 3 -->
    <rect x="0"   y="84" width="30" height="22" rx="3" fill="url(#coreMid)"    filter="url(#glowCuda)"/>
    <rect x="36"  y="84" width="30" height="22" rx="3" fill="url(#coreActive)" filter="url(#glowCuda)"/>
    <rect x="72"  y="84" width="30" height="22" rx="3" fill="url(#coreActive)" filter="url(#glowCuda)"/>
    <rect x="108" y="84" width="30" height="22" rx="3" fill="url(#coreIdle)"/>
    <rect x="144" y="84" width="30" height="22" rx="3" fill="url(#coreMid)"    filter="url(#glowCuda)"/>
    <rect x="180" y="84" width="30" height="22" rx="3" fill="url(#coreActive)" filter="url(#glowCuda)"/>
    <rect x="216" y="84" width="30" height="22" rx="3" fill="url(#coreIdle)"/>
    <rect x="252" y="84" width="30" height="22" rx="3" fill="url(#coreActive)" filter="url(#glowCuda)"/>
    <rect x="288" y="84" width="30" height="22" rx="3" fill="url(#coreMid)"    filter="url(#glowCuda)"/>
    <rect x="324" y="84" width="30" height="22" rx="3" fill="url(#coreActive)" filter="url(#glowCuda)"/>
    <!-- Row 4 -->
    <rect x="0"   y="112" width="30" height="22" rx="3" fill="url(#coreIdle)"/>
    <rect x="36"  y="112" width="30" height="22" rx="3" fill="url(#coreMid)"    filter="url(#glowCuda)"/>
    <rect x="72"  y="112" width="30" height="22" rx="3" fill="url(#coreMid)"    filter="url(#glowCuda)"/>
    <rect x="108" y="112" width="30" height="22" rx="3" fill="url(#coreActive)" filter="url(#glowCuda)"/>
    <rect x="144" y="112" width="30" height="22" rx="3" fill="url(#coreActive)" filter="url(#glowCuda)"/>
    <rect x="180" y="112" width="30" height="22" rx="3" fill="url(#coreMid)"    filter="url(#glowCuda)"/>
    <rect x="216" y="112" width="30" height="22" rx="3" fill="url(#coreActive)" filter="url(#glowCuda)"/>
    <rect x="252" y="112" width="30" height="22" rx="3" fill="url(#coreIdle)"/>
    <rect x="288" y="112" width="30" height="22" rx="3" fill="url(#coreActive)" filter="url(#glowCuda)"/>
    <rect x="324" y="112" width="30" height="22" rx="3" fill="url(#coreMid)"    filter="url(#glowCuda)"/>
    <!-- Row 5 -->
    <rect x="0"   y="140" width="30" height="22" rx="3" fill="url(#coreActive)" filter="url(#glowCuda)"/>
    <rect x="36"  y="140" width="30" height="22" rx="3" fill="url(#coreActive)" filter="url(#glowCuda)"/>
    <rect x="72"  y="140" width="30" height="22" rx="3" fill="url(#coreIdle)"/>
    <rect x="108" y="140" width="30" height="22" rx="3" fill="url(#coreMid)"    filter="url(#glowCuda)"/>
    <rect x="144" y="140" width="30" height="22" rx="3" fill="url(#coreIdle)"/>
    <rect x="180" y="140" width="30" height="22" rx="3" fill="url(#coreActive)" filter="url(#glowCuda)"/>
    <rect x="216" y="140" width="30" height="22" rx="3" fill="url(#coreMid)"    filter="url(#glowCuda)"/>
    <rect x="252" y="140" width="30" height="22" rx="3" fill="url(#coreActive)" filter="url(#glowCuda)"/>
    <rect x="288" y="140" width="30" height="22" rx="3" fill="url(#coreMid)"    filter="url(#glowCuda)"/>
    <rect x="324" y="140" width="30" height="22" rx="3" fill="url(#coreIdle)"/>
    <!-- Row 6 -->
    <rect x="0"   y="168" width="30" height="22" rx="3" fill="url(#coreMid)"    filter="url(#glowCuda)"/>
    <rect x="36"  y="168" width="30" height="22" rx="3" fill="url(#coreIdle)"/>
    <rect x="72"  y="168" width="30" height="22" rx="3" fill="url(#coreActive)" filter="url(#glowCuda)"/>
    <rect x="108" y="168" width="30" height="22" rx="3" fill="url(#coreActive)" filter="url(#glowCuda)"/>
    <rect x="144" y="168" width="30" height="22" rx="3" fill="url(#coreMid)"    filter="url(#glowCuda)"/>
    <rect x="180" y="168" width="30" height="22" rx="3" fill="url(#coreIdle)"/>
    <rect x="216" y="168" width="30" height="22" rx="3" fill="url(#coreActive)" filter="url(#glowCuda)"/>
    <rect x="252" y="168" width="30" height="22" rx="3" fill="url(#coreMid)"    filter="url(#glowCuda)"/>
    <rect x="288" y="168" width="30" height="22" rx="3" fill="url(#coreActive)" filter="url(#glowCuda)"/>
    <rect x="324" y="168" width="30" height="22" rx="3" fill="url(#coreActive)" filter="url(#glowCuda)"/>
    <!-- Row 7 -->
    <rect x="0"   y="196" width="30" height="22" rx="3" fill="url(#coreActive)" filter="url(#glowCuda)"/>
    <rect x="36"  y="196" width="30" height="22" rx="3" fill="url(#coreMid)"    filter="url(#glowCuda)"/>
    <rect x="72"  y="196" width="30" height="22" rx="3" fill="url(#coreActive)" filter="url(#glowCuda)"/>
    <rect x="108" y="196" width="30" height="22" rx="3" fill="url(#coreIdle)"/>
    <rect x="144" y="196" width="30" height="22" rx="3" fill="url(#coreActive)" filter="url(#glowCuda)"/>
    <rect x="180" y="196" width="30" height="22" rx="3" fill="url(#coreActive)" filter="url(#glowCuda)"/>
    <rect x="216" y="196" width="30" height="22" rx="3" fill="url(#coreMid)"    filter="url(#glowCuda)"/>
    <rect x="252" y="196" width="30" height="22" rx="3" fill="url(#coreIdle)"/>
    <rect x="288" y="196" width="30" height="22" rx="3" fill="url(#coreActive)" filter="url(#glowCuda)"/>
    <rect x="324" y="196" width="30" height="22" rx="3" fill="url(#coreMid)"    filter="url(#glowCuda)"/>
  </g>

  <!-- Legend for cores -->
  <g transform="translate(96, 390)">
    <rect x="0" y="0" width="14" height="14" rx="2" fill="url(#coreActive)"/>
    <text x="20" y="11" font-family="monospace" font-size="10" fill="#94a3b8">Active (tiled)</text>
    <rect x="120" y="0" width="14" height="14" rx="2" fill="url(#coreMid)"/>
    <text x="140" y="11" font-family="monospace" font-size="10" fill="#94a3b8">cuBLAS</text>
    <rect x="220" y="0" width="14" height="14" rx="2" fill="url(#coreIdle)"/>
    <text x="240" y="11" font-family="monospace" font-size="10" fill="#94a3b8">Idle</text>
  </g>

  <!-- Performance chart -->
  <g transform="translate(570, 100)">
    <text x="155" y="20" text-anchor="middle" font-family="monospace" font-size="13" fill="#94a3b8" letter-spacing="1">Throughput · 2048×2048</text>

    <!-- Bars -->
    <!-- CPU -->
    <rect x="0" y="50" width="30" height="230" rx="3" fill="#1e3a5f"/>
    <text x="15" y="296" text-anchor="middle" font-family="monospace" font-size="9" fill="#64748b">CPU</text>
    <text x="15" y="44" text-anchor="middle" font-family="monospace" font-size="9" fill="#64748b">1x</text>

    <!-- Naive CUDA -->
    <rect x="52" y="130" width="30" height="150" rx="3" fill="#0c4a6e"/>
    <text x="67" y="296" text-anchor="middle" font-family="monospace" font-size="9" fill="#64748b">Naive</text>
    <text x="67" y="124" text-anchor="middle" font-family="monospace" font-size="9" fill="#64748b">4x</text>

    <!-- Tiled CUDA -->
    <rect x="104" y="80" width="30" height="200" rx="3" fill="url(#barGpu)" filter="url(#glowCuda)"/>
    <text x="119" y="296" text-anchor="middle" font-family="monospace" font-size="9" fill="#76c442">Tiled</text>
    <text x="119" y="74" text-anchor="middle" font-family="monospace" font-size="9" fill="#76c442">12x</text>

    <!-- cuBLAS -->
    <rect x="156" y="40" width="30" height="240" rx="3" fill="url(#barCublas)" filter="url(#glowCuda)"/>
    <text x="171" y="296" text-anchor="middle" font-family="monospace" font-size="9" fill="#2ea8e0">cuBLAS</text>
    <text x="171" y="34" text-anchor="middle" font-family="monospace" font-size="9" fill="#2ea8e0">18x</text>

    <!-- Axis -->
    <line x1="0" y1="280" x2="310" y2="280" stroke="#1e3a5f" stroke-width="1"/>
    <line x1="0" y1="50"  x2="0"   y2="280" stroke="#1e3a5f" stroke-width="1"/>

    <!-- Image convolution section -->
    <text x="155" y="340" text-anchor="middle" font-family="monospace" font-size="11" fill="#64748b">Image convolution: 3x3 to 7x7 filters</text>
    <g transform="translate(10, 355)">
      <!-- edge detect bar -->
      <rect x="0" y="0" width="80" height="12" rx="3" fill="#1e3a5f"/>
      <rect x="0" y="0" width="26" height="12" rx="3" fill="#64748b"/>
      <text x="86" y="10" font-family="monospace" font-size="9" fill="#64748b">Edge</text>
      <!-- sharpen bar -->
      <rect x="0" y="18" width="80" height="12" rx="3" fill="#1e3a5f"/>
      <rect x="0" y="18" width="55" height="12" rx="3" fill="url(#barGpu)" opacity="0.8"/>
      <text x="86" y="28" font-family="monospace" font-size="9" fill="#76c442">Sharpen</text>
      <!-- blur bar -->
      <rect x="0" y="36" width="80" height="12" rx="3" fill="#1e3a5f"/>
      <rect x="0" y="36" width="72" height="12" rx="3" fill="url(#barCublas)" opacity="0.8"/>
      <text x="86" y="46" font-family="monospace" font-size="9" fill="#2ea8e0">Gaussian</text>
    </g>
  </g>

  <!-- Title -->
  <text x="468" y="580" text-anchor="middle" font-family="system-ui, sans-serif" font-size="22" font-weight="600" fill="#f1f5f9" letter-spacing="0.5">CUDA Accelerated Python Library</text>
  <text x="468" y="608" text-anchor="middle" font-family="monospace" font-size="13" fill="#64748b">C · CUDA · cuBLAS · Python · Tesla T4</text>
</svg>
